<svg width="20" height="18" viewBox="0 0 20 18" fill="none" xmlns="http://www.w3.org/2000/svg">
<path fill-rule="evenodd" clip-rule="evenodd" d="M8.54218 0.382525C9.11594 -0.127508 9.98051 -0.127508 10.5541 0.382525L18.9269 7.82514C19.1352 8.01019 19.154 8.32924 18.9688 8.53764L18.2982 9.2922C18.113 9.5004 17.7939 9.51933 17.5855 9.33394L16.6148 8.47105V17.4954C16.6148 17.7741 16.3887 18 16.11 18H11.5673V11.186C11.5673 11.0466 11.4543 10.9337 11.3148 10.9337H7.78177C7.64235 10.9337 7.52929 11.0466 7.52929 11.186V18H2.98663C2.70795 18 2.482 17.774 2.482 17.4954V8.47062L1.51078 9.33385C1.30241 9.51925 0.983356 9.50032 0.798102 9.29211L0.127518 8.53755C-0.057701 8.32918 -0.0389463 8.01013 0.16943 7.82505L8.54218 0.382525Z" fill="black"/>
</svg>
